<svg width="128" height="128" viewBox="0 0 128 128" fill="none" xmlns="http://www.w3.org/2000/svg">
  <rect width="128" height="128" rx="32" fill="hsl(24 95% 92%)"/>
  <path d="M67.1 18C74.5 29.8 71.6 40.3 61.7 49.8C55.1 56.1 52 63.1 52 70.8C52 81.7 60.7 90 71.2 90C82.7 90 92 80.8 92 68.8C92 53.5 84 39.8 67.1 18Z" fill="hsl(17 91% 58%)"/>
  <path d="M57.4 44C61.5 51 60.2 56.8 53.9 62.2C49.8 65.8 48 70.1 48 74.9C48 83.5 54.8 90 63 90C71.9 90 79 82.7 79 73.3C79 61.5 72.7 51 57.4 44Z" fill="hsl(35 97% 59%)"/>
  <path d="M61.3 63C63.6 67 63 70.2 59.4 73.2C57 75.2 56 77.7 56 80.5C56 85.7 60.1 90 65 90C70.3 90 74.6 85.6 74.6 79.8C74.6 72.7 70.8 66.3 61.3 63Z" fill="hsl(50 100% 83%)"/>
</svg>
